<svg width="25" height="26" viewBox="0 0 25 26" fill="none" xmlns="http://www.w3.org/2000/svg">
<g filter="url(#filter0_bdi_192_965)">
<path d="M15.0444 5.33569C15.8248 4.55405 17.0907 4.55358 17.8717 5.33462L20.3636 7.82648C21.138 8.60086 21.146 9.85451 20.3816 10.6388L11.1485 20.112C10.5841 20.6911 9.80994 21.0177 9.00159 21.0176L6.24944 21.0175C5.39661 21.0175 4.71554 20.3066 4.7514 19.4538L4.86956 16.6448C4.90116 15.8936 5.21338 15.1816 5.74445 14.6497L15.0444 5.33569Z" fill="url(#paint0_linear_192_965)" shape-rendering="crispEdges"/>
<path d="M17.7834 5.42308L20.2753 7.91493C21.0013 8.64092 21.0088 9.81621 20.2922 10.5515L11.059 20.0247C10.5181 20.5797 9.77626 20.8926 9.0016 20.8926L6.24945 20.8925C5.46769 20.8924 4.84337 20.2408 4.87625 19.4591L4.9944 16.6501C5.02468 15.9301 5.3239 15.2478 5.83284 14.7381L15.1328 5.42408C15.8644 4.69129 17.0512 4.69085 17.7834 5.42308Z" stroke="url(#paint1_linear_192_965)" stroke-opacity="0.7" stroke-width="0.25" shape-rendering="crispEdges"/>
</g>
<g filter="url(#filter1_d_192_965)">
<path fill-rule="evenodd" clip-rule="evenodd" d="M17.9487 12.7766L20.2027 10.4639C20.8715 9.77771 20.8645 8.68077 20.1869 8.00318L17.695 5.51133C17.0116 4.82791 15.904 4.82833 15.2211 5.51227L12.9544 7.78235L17.9487 12.7766Z" fill="#3B68FF"/>
</g>
<g filter="url(#filter2_d_192_965)">
<path d="M15.3929 20.9448H21.5146" stroke="#3B68FF" stroke-width="1.5" stroke-linecap="round" stroke-linejoin="round"/>
</g>
<defs>
<filter id="filter0_bdi_192_965" x="0.75" y="0.749023" width="24.1997" height="24.2686" filterUnits="userSpaceOnUse" color-interpolation-filters="sRGB">
<feFlood flood-opacity="0" result="BackgroundImageFix"/>
<feGaussianBlur in="BackgroundImageFix" stdDeviation="1"/>
<feComposite in2="SourceAlpha" operator="in" result="effect1_backgroundBlur_192_965"/>
<feColorMatrix in="SourceAlpha" type="matrix" values="0 0 0 0 0 0 0 0 0 0 0 0 0 0 0 0 0 0 127 0" result="hardAlpha"/>
<feOffset/>
<feGaussianBlur stdDeviation="2"/>
<feComposite in2="hardAlpha" operator="out"/>
<feColorMatrix type="matrix" values="0 0 0 0 0.231373 0 0 0 0 0.407843 0 0 0 0 1 0 0 0 0.1 0"/>
<feBlend mode="normal" in2="effect1_backgroundBlur_192_965" result="effect2_dropShadow_192_965"/>
<feBlend mode="normal" in="SourceGraphic" in2="effect2_dropShadow_192_965" result="shape"/>
<feColorMatrix in="SourceAlpha" type="matrix" values="0 0 0 0 0 0 0 0 0 0 0 0 0 0 0 0 0 0 127 0" result="hardAlpha"/>
<feOffset/>
<feGaussianBlur stdDeviation="1.5"/>
<feComposite in2="hardAlpha" operator="arithmetic" k2="-1" k3="1"/>
<feColorMatrix type="matrix" values="0 0 0 0 0.231373 0 0 0 0 0.407843 0 0 0 0 1 0 0 0 0.38 0"/>
<feBlend mode="normal" in2="shape" result="effect3_innerShadow_192_965"/>
</filter>
<filter id="filter1_d_192_965" x="10.9546" y="2.99902" width="11.7451" height="11.7773" filterUnits="userSpaceOnUse" color-interpolation-filters="sRGB">
<feFlood flood-opacity="0" result="BackgroundImageFix"/>
<feColorMatrix in="SourceAlpha" type="matrix" values="0 0 0 0 0 0 0 0 0 0 0 0 0 0 0 0 0 0 127 0" result="hardAlpha"/>
<feOffset/>
<feGaussianBlur stdDeviation="1"/>
<feComposite in2="hardAlpha" operator="out"/>
<feColorMatrix type="matrix" values="0 0 0 0 0.231373 0 0 0 0 0.407843 0 0 0 0 1 0 0 0 0.35 0"/>
<feBlend mode="normal" in2="BackgroundImageFix" result="effect1_dropShadow_192_965"/>
<feBlend mode="normal" in="SourceGraphic" in2="effect1_dropShadow_192_965" result="shape"/>
</filter>
<filter id="filter2_d_192_965" x="12.6431" y="18.1943" width="11.6211" height="5.50098" filterUnits="userSpaceOnUse" color-interpolation-filters="sRGB">
<feFlood flood-opacity="0" result="BackgroundImageFix"/>
<feColorMatrix in="SourceAlpha" type="matrix" values="0 0 0 0 0 0 0 0 0 0 0 0 0 0 0 0 0 0 127 0" result="hardAlpha"/>
<feOffset/>
<feGaussianBlur stdDeviation="1"/>
<feComposite in2="hardAlpha" operator="out"/>
<feColorMatrix type="matrix" values="0 0 0 0 0.231373 0 0 0 0 0.407843 0 0 0 0 1 0 0 0 0.35 0"/>
<feBlend mode="normal" in2="BackgroundImageFix" result="effect1_dropShadow_192_965"/>
<feBlend mode="normal" in="SourceGraphic" in2="effect1_dropShadow_192_965" result="shape"/>
</filter>
<linearGradient id="paint0_linear_192_965" x1="20.4576" y1="-3.62705" x2="31.2552" y2="18.0799" gradientUnits="userSpaceOnUse">
<stop stop-color="#344EA6" stop-opacity="0.26"/>
<stop offset="0.505208" stop-color="#587EFF" stop-opacity="0.12"/>
<stop offset="1" stop-color="#829EFF" stop-opacity="0.04"/>
</linearGradient>
<linearGradient id="paint1_linear_192_965" x1="14.4301" y1="6.22332" x2="19.5008" y2="16.122" gradientUnits="userSpaceOnUse">
<stop stop-color="white" stop-opacity="0.15"/>
<stop offset="1" stop-color="white" stop-opacity="0.44"/>
</linearGradient>
</defs>
</svg>
