<svg width="28" height="30" viewBox="0 0 28 30" fill="none" xmlns="http://www.w3.org/2000/svg">
<g filter="url(#filter0_bdi_192_1028)">
<path d="M16.6198 14.6861C14.9917 13.7713 13.0083 13.7713 11.3802 14.6861L5.34356 18.0776C3.88548 18.8968 3.88548 21.0043 5.34356 21.8235L11.3802 25.215C13.0083 26.1298 14.9917 26.1298 16.6198 25.215L22.6564 21.8235C24.1145 21.0043 24.1145 18.8968 22.6564 18.0776L16.6198 14.6861Z" fill="url(#paint0_linear_192_1028)" shape-rendering="crispEdges"/>
<path d="M11.4414 14.795C13.0315 13.9017 14.9685 13.9017 16.5586 14.795L22.5952 18.1866C23.9683 18.958 23.9683 20.9431 22.5952 21.7145L16.5586 25.1061C14.9685 25.9994 13.0315 25.9994 11.4414 25.1061L5.40479 21.7145C4.03173 20.9431 4.03174 18.958 5.40479 18.1866L11.4414 14.795Z" stroke="url(#paint1_linear_192_1028)" stroke-opacity="0.7" stroke-width="0.25" shape-rendering="crispEdges"/>
</g>
<g filter="url(#filter1_d_192_1028)">
<path d="M16.6198 9.68606C14.9917 8.77131 13.0083 8.77131 11.3802 9.68606L5.34356 13.0776C3.88548 13.8968 3.88548 16.0043 5.34356 16.8235L11.3802 20.215C13.0083 21.1298 14.9917 21.1298 16.6198 20.215L22.6564 16.8235C24.1145 16.0043 24.1145 13.8968 22.6564 13.0776L16.6198 9.68606Z" fill="#3B68FF"/>
</g>
<g filter="url(#filter2_bdi_192_1028)">
<path d="M16.6198 4.93606C14.9917 4.02131 13.0083 4.02131 11.3802 4.93606L5.34356 8.32762C3.88548 9.14682 3.88548 11.2543 5.34356 12.0735L11.3802 15.465C13.0083 16.3798 14.9917 16.3798 16.6198 15.465L22.6564 12.0735C24.1145 11.2543 24.1145 9.14682 22.6564 8.32762L16.6198 4.93606Z" fill="url(#paint2_linear_192_1028)" shape-rendering="crispEdges"/>
<path d="M11.4414 5.04504C13.0315 4.15165 14.9685 4.15165 16.5586 5.04504L22.5952 8.4366C23.9683 9.20803 23.9683 11.1931 22.5952 11.9645L16.5586 15.3561C14.9685 16.2494 13.0315 16.2494 11.4414 15.3561L5.40479 11.9645C4.03173 11.1931 4.03174 9.20802 5.40479 8.4366L11.4414 5.04504Z" stroke="url(#paint3_linear_192_1028)" stroke-opacity="0.7" stroke-width="0.25" shape-rendering="crispEdges"/>
</g>
<defs>
<filter id="filter0_bdi_192_1028" x="0.25" y="10" width="27.5" height="19.9009" filterUnits="userSpaceOnUse" color-interpolation-filters="sRGB">
<feFlood flood-opacity="0" result="BackgroundImageFix"/>
<feGaussianBlur in="BackgroundImageFix" stdDeviation="1"/>
<feComposite in2="SourceAlpha" operator="in" result="effect1_backgroundBlur_192_1028"/>
<feColorMatrix in="SourceAlpha" type="matrix" values="0 0 0 0 0 0 0 0 0 0 0 0 0 0 0 0 0 0 127 0" result="hardAlpha"/>
<feOffset/>
<feGaussianBlur stdDeviation="2"/>
<feComposite in2="hardAlpha" operator="out"/>
<feColorMatrix type="matrix" values="0 0 0 0 0.231373 0 0 0 0 0.407843 0 0 0 0 1 0 0 0 0.1 0"/>
<feBlend mode="normal" in2="effect1_backgroundBlur_192_1028" result="effect2_dropShadow_192_1028"/>
<feBlend mode="normal" in="SourceGraphic" in2="effect2_dropShadow_192_1028" result="shape"/>
<feColorMatrix in="SourceAlpha" type="matrix" values="0 0 0 0 0 0 0 0 0 0 0 0 0 0 0 0 0 0 127 0" result="hardAlpha"/>
<feOffset/>
<feGaussianBlur stdDeviation="1.5"/>
<feComposite in2="hardAlpha" operator="arithmetic" k2="-1" k3="1"/>
<feColorMatrix type="matrix" values="0 0 0 0 0.231373 0 0 0 0 0.407843 0 0 0 0 1 0 0 0 0.38 0"/>
<feBlend mode="normal" in2="shape" result="effect3_innerShadow_192_1028"/>
</filter>
<filter id="filter1_d_192_1028" x="2.25" y="7" width="23.5" height="15.9009" filterUnits="userSpaceOnUse" color-interpolation-filters="sRGB">
<feFlood flood-opacity="0" result="BackgroundImageFix"/>
<feColorMatrix in="SourceAlpha" type="matrix" values="0 0 0 0 0 0 0 0 0 0 0 0 0 0 0 0 0 0 127 0" result="hardAlpha"/>
<feOffset/>
<feGaussianBlur stdDeviation="1"/>
<feComposite in2="hardAlpha" operator="out"/>
<feColorMatrix type="matrix" values="0 0 0 0 0.231373 0 0 0 0 0.407843 0 0 0 0 1 0 0 0 0.35 0"/>
<feBlend mode="normal" in2="BackgroundImageFix" result="effect1_dropShadow_192_1028"/>
<feBlend mode="normal" in="SourceGraphic" in2="effect1_dropShadow_192_1028" result="shape"/>
</filter>
<filter id="filter2_bdi_192_1028" x="0.25" y="0.25" width="27.5" height="19.9009" filterUnits="userSpaceOnUse" color-interpolation-filters="sRGB">
<feFlood flood-opacity="0" result="BackgroundImageFix"/>
<feGaussianBlur in="BackgroundImageFix" stdDeviation="1"/>
<feComposite in2="SourceAlpha" operator="in" result="effect1_backgroundBlur_192_1028"/>
<feColorMatrix in="SourceAlpha" type="matrix" values="0 0 0 0 0 0 0 0 0 0 0 0 0 0 0 0 0 0 127 0" result="hardAlpha"/>
<feOffset/>
<feGaussianBlur stdDeviation="2"/>
<feComposite in2="hardAlpha" operator="out"/>
<feColorMatrix type="matrix" values="0 0 0 0 0.231373 0 0 0 0 0.407843 0 0 0 0 1 0 0 0 0.1 0"/>
<feBlend mode="normal" in2="effect1_backgroundBlur_192_1028" result="effect2_dropShadow_192_1028"/>
<feBlend mode="normal" in="SourceGraphic" in2="effect2_dropShadow_192_1028" result="shape"/>
<feColorMatrix in="SourceAlpha" type="matrix" values="0 0 0 0 0 0 0 0 0 0 0 0 0 0 0 0 0 0 127 0" result="hardAlpha"/>
<feOffset/>
<feGaussianBlur stdDeviation="1.5"/>
<feComposite in2="hardAlpha" operator="arithmetic" k2="-1" k3="1"/>
<feColorMatrix type="matrix" values="0 0 0 0 0.231373 0 0 0 0 0.407843 0 0 0 0 1 0 0 0 0.38 0"/>
<feBlend mode="normal" in2="shape" result="effect3_innerShadow_192_1028"/>
</filter>
<linearGradient id="paint0_linear_192_1028" x1="-2.0875" y1="9.23956" x2="18.5694" y2="39.4269" gradientUnits="userSpaceOnUse">
<stop stop-color="#344EA6" stop-opacity="0.26"/>
<stop offset="0.505208" stop-color="#587EFF" stop-opacity="0.12"/>
<stop offset="1" stop-color="#829EFF" stop-opacity="0.04"/>
</linearGradient>
<linearGradient id="paint1_linear_192_1028" x1="4.7375" y1="15.7852" x2="14.6951" y2="29.7699" gradientUnits="userSpaceOnUse">
<stop stop-color="white" stop-opacity="0.15"/>
<stop offset="1" stop-color="white" stop-opacity="0.44"/>
</linearGradient>
<linearGradient id="paint2_linear_192_1028" x1="-2.0875" y1="-0.51044" x2="18.5694" y2="29.6769" gradientUnits="userSpaceOnUse">
<stop stop-color="#344EA6" stop-opacity="0.26"/>
<stop offset="0.505208" stop-color="#587EFF" stop-opacity="0.12"/>
<stop offset="1" stop-color="#829EFF" stop-opacity="0.04"/>
</linearGradient>
<linearGradient id="paint3_linear_192_1028" x1="4.7375" y1="6.03516" x2="14.6951" y2="20.0199" gradientUnits="userSpaceOnUse">
<stop stop-color="white" stop-opacity="0.15"/>
<stop offset="1" stop-color="white" stop-opacity="0.44"/>
</linearGradient>
</defs>
</svg>
