<svg width="28" height="27" viewBox="0 0 28 27" fill="none" xmlns="http://www.w3.org/2000/svg">
<g filter="url(#filter0_bdi_192_993)">
<path d="M12.9718 4.70846C13.4382 3.93348 14.5618 3.93348 15.0282 4.70847L17.3586 8.58087C17.5262 8.85928 17.7995 9.05784 18.116 9.13116L22.5191 10.1509C23.4002 10.355 23.7474 11.4236 23.1545 12.1066L20.1918 15.5196C19.9788 15.765 19.8744 16.0863 19.9025 16.41L20.2932 20.9127C20.3714 21.8138 19.4625 22.4742 18.6296 22.1214L14.4681 20.3583C14.1689 20.2316 13.8311 20.2316 13.5319 20.3583L9.37038 22.1214C8.53754 22.4742 7.62856 21.8138 7.70677 20.9127L8.09754 16.41C8.12563 16.0863 8.02124 15.765 7.80823 15.5196L4.8455 12.1066C4.25257 11.4236 4.59977 10.355 5.48095 10.1509L9.88397 9.13116C10.2005 9.05784 10.4738 8.85928 10.6414 8.58087L12.9718 4.70846Z" fill="url(#paint0_linear_192_993)" shape-rendering="crispEdges"/>
<path d="M12.9718 4.70846C13.4382 3.93348 14.5618 3.93348 15.0282 4.70847L17.3586 8.58087C17.5262 8.85928 17.7995 9.05784 18.116 9.13116L22.5191 10.1509C23.4002 10.355 23.7474 11.4236 23.1545 12.1066L20.1918 15.5196C19.9788 15.765 19.8744 16.0863 19.9025 16.41L20.2932 20.9127C20.3714 21.8138 19.4625 22.4742 18.6296 22.1214L14.4681 20.3583C14.1689 20.2316 13.8311 20.2316 13.5319 20.3583L9.37038 22.1214C8.53754 22.4742 7.62856 21.8138 7.70677 20.9127L8.09754 16.41C8.12563 16.0863 8.02124 15.765 7.80823 15.5196L4.8455 12.1066C4.25257 11.4236 4.59977 10.355 5.48095 10.1509L9.88397 9.13116C10.2005 9.05784 10.4738 8.85928 10.6414 8.58087L12.9718 4.70846Z" stroke="url(#paint1_linear_192_993)" stroke-width="0.25" shape-rendering="crispEdges"/>
</g>
<defs>
<filter id="filter0_bdi_192_993" x="0.425781" y="0.00244141" width="27.1484" height="26.3408" filterUnits="userSpaceOnUse" color-interpolation-filters="sRGB">
<feFlood flood-opacity="0" result="BackgroundImageFix"/>
<feGaussianBlur in="BackgroundImageFix" stdDeviation="1"/>
<feComposite in2="SourceAlpha" operator="in" result="effect1_backgroundBlur_192_993"/>
<feColorMatrix in="SourceAlpha" type="matrix" values="0 0 0 0 0 0 0 0 0 0 0 0 0 0 0 0 0 0 127 0" result="hardAlpha"/>
<feOffset/>
<feGaussianBlur stdDeviation="2"/>
<feComposite in2="hardAlpha" operator="out"/>
<feColorMatrix type="matrix" values="0 0 0 0 0.231373 0 0 0 0 0.407843 0 0 0 0 1 0 0 0 0.1 0"/>
<feBlend mode="normal" in2="effect1_backgroundBlur_192_993" result="effect2_dropShadow_192_993"/>
<feBlend mode="normal" in="SourceGraphic" in2="effect2_dropShadow_192_993" result="shape"/>
<feColorMatrix in="SourceAlpha" type="matrix" values="0 0 0 0 0 0 0 0 0 0 0 0 0 0 0 0 0 0 127 0" result="hardAlpha"/>
<feOffset/>
<feGaussianBlur stdDeviation="1.5"/>
<feComposite in2="hardAlpha" operator="arithmetic" k2="-1" k3="1"/>
<feColorMatrix type="matrix" values="0 0 0 0 0.231373 0 0 0 0 0.407843 0 0 0 0 1 0 0 0 0.38 0"/>
<feBlend mode="normal" in2="shape" result="effect3_innerShadow_192_993"/>
</filter>
<linearGradient id="paint0_linear_192_993" x1="-4.15" y1="-5.8" x2="36.55" y2="30.5" gradientUnits="userSpaceOnUse">
<stop stop-color="#384CB6" stop-opacity="0.12"/>
<stop offset="0.505208" stop-color="#5C6CFF" stop-opacity="0.18"/>
<stop offset="1" stop-color="#B5BCE0" stop-opacity="0.08"/>
</linearGradient>
<linearGradient id="paint1_linear_192_993" x1="3.55" y1="6.3" x2="22.8" y2="22.8" gradientUnits="userSpaceOnUse">
<stop stop-color="#8B96BC" stop-opacity="0.3"/>
<stop offset="1" stop-color="#9FA4D2" stop-opacity="0.44"/>
</linearGradient>
</defs>
</svg>
