<svg width="24" height="26" viewBox="0 0 24 26" fill="none" xmlns="http://www.w3.org/2000/svg">
<g filter="url(#filter0_d_192_1061)">
<path d="M16 6L15.4558 4.36754C15.1836 3.55086 14.4193 3 13.5585 3H10.4415C9.58066 3 8.81638 3.55086 8.54415 4.36754L8 6" stroke="#FF5858" stroke-width="1.5" stroke-linecap="round"/>
</g>
<g filter="url(#filter1_bdi_192_1061)">
<path d="M5.05063 8.73418C4.20573 7.60763 5.00954 6 6.41772 6H17.5823C18.9905 6 19.7943 7.60763 18.9494 8.73418V8.73418C18.3331 9.55584 18 10.5552 18 11.5823V18C18 20.2091 16.2091 22 14 22H10C7.79086 22 6 20.2091 6 18V11.5823C6 10.5552 5.66688 9.55584 5.05063 8.73418V8.73418Z" fill="url(#paint0_linear_192_1061)" shape-rendering="crispEdges"/>
<path d="M6.41772 6.125H17.5823C18.8875 6.125 19.6325 7.61504 18.8494 8.65918C18.2169 9.50247 17.875 10.5282 17.875 11.5823V18C17.875 20.1401 16.1401 21.875 14 21.875H10C7.8599 21.875 6.125 20.1401 6.125 18V11.5823C6.125 10.5282 5.7831 9.50247 5.15063 8.65918C4.36753 7.61504 5.11255 6.125 6.41772 6.125Z" stroke="url(#paint1_linear_192_1061)" stroke-opacity="0.7" stroke-width="0.25" shape-rendering="crispEdges"/>
</g>
<g filter="url(#filter2_d_192_1061)">
<path d="M14 17L14 11" stroke="#FF5858" stroke-width="1.5" stroke-linecap="round" stroke-linejoin="round"/>
</g>
<g filter="url(#filter3_d_192_1061)">
<path d="M10 17L10 11" stroke="#FF5858" stroke-width="1.5" stroke-linecap="round" stroke-linejoin="round"/>
</g>
<defs>
<filter id="filter0_d_192_1061" x="5.25" y="0.25" width="13.5" height="8.5" filterUnits="userSpaceOnUse" color-interpolation-filters="sRGB">
<feFlood flood-opacity="0" result="BackgroundImageFix"/>
<feColorMatrix in="SourceAlpha" type="matrix" values="0 0 0 0 0 0 0 0 0 0 0 0 0 0 0 0 0 0 127 0" result="hardAlpha"/>
<feOffset/>
<feGaussianBlur stdDeviation="1"/>
<feComposite in2="hardAlpha" operator="out"/>
<feColorMatrix type="matrix" values="0 0 0 0 0.231373 0 0 0 0 0.407843 0 0 0 0 1 0 0 0 0.35 0"/>
<feBlend mode="normal" in2="BackgroundImageFix" result="effect1_dropShadow_192_1061"/>
<feBlend mode="normal" in="SourceGraphic" in2="effect1_dropShadow_192_1061" result="shape"/>
</filter>
<filter id="filter1_bdi_192_1061" x="0.705566" y="2" width="22.5889" height="24" filterUnits="userSpaceOnUse" color-interpolation-filters="sRGB">
<feFlood flood-opacity="0" result="BackgroundImageFix"/>
<feGaussianBlur in="BackgroundImageFix" stdDeviation="1"/>
<feComposite in2="SourceAlpha" operator="in" result="effect1_backgroundBlur_192_1061"/>
<feColorMatrix in="SourceAlpha" type="matrix" values="0 0 0 0 0 0 0 0 0 0 0 0 0 0 0 0 0 0 127 0" result="hardAlpha"/>
<feOffset/>
<feGaussianBlur stdDeviation="2"/>
<feComposite in2="hardAlpha" operator="out"/>
<feColorMatrix type="matrix" values="0 0 0 0 0.231373 0 0 0 0 0.407843 0 0 0 0 1 0 0 0 0.1 0"/>
<feBlend mode="normal" in2="effect1_backgroundBlur_192_1061" result="effect2_dropShadow_192_1061"/>
<feBlend mode="normal" in="SourceGraphic" in2="effect2_dropShadow_192_1061" result="shape"/>
<feColorMatrix in="SourceAlpha" type="matrix" values="0 0 0 0 0 0 0 0 0 0 0 0 0 0 0 0 0 0 127 0" result="hardAlpha"/>
<feOffset/>
<feGaussianBlur stdDeviation="1.5"/>
<feComposite in2="hardAlpha" operator="arithmetic" k2="-1" k3="1"/>
<feColorMatrix type="matrix" values="0 0 0 0 0.231373 0 0 0 0 0.407843 0 0 0 0 1 0 0 0 0.38 0"/>
<feBlend mode="normal" in2="shape" result="effect3_innerShadow_192_1061"/>
</filter>
<filter id="filter2_d_192_1061" x="11.25" y="8.25" width="5.5" height="11.5" filterUnits="userSpaceOnUse" color-interpolation-filters="sRGB">
<feFlood flood-opacity="0" result="BackgroundImageFix"/>
<feColorMatrix in="SourceAlpha" type="matrix" values="0 0 0 0 0 0 0 0 0 0 0 0 0 0 0 0 0 0 127 0" result="hardAlpha"/>
<feOffset/>
<feGaussianBlur stdDeviation="1"/>
<feComposite in2="hardAlpha" operator="out"/>
<feColorMatrix type="matrix" values="0 0 0 0 0.231373 0 0 0 0 0.407843 0 0 0 0 1 0 0 0 0.35 0"/>
<feBlend mode="normal" in2="BackgroundImageFix" result="effect1_dropShadow_192_1061"/>
<feBlend mode="normal" in="SourceGraphic" in2="effect1_dropShadow_192_1061" result="shape"/>
</filter>
<filter id="filter3_d_192_1061" x="7.25" y="8.25" width="5.5" height="11.5" filterUnits="userSpaceOnUse" color-interpolation-filters="sRGB">
<feFlood flood-opacity="0" result="BackgroundImageFix"/>
<feColorMatrix in="SourceAlpha" type="matrix" values="0 0 0 0 0 0 0 0 0 0 0 0 0 0 0 0 0 0 127 0" result="hardAlpha"/>
<feOffset/>
<feGaussianBlur stdDeviation="1"/>
<feComposite in2="hardAlpha" operator="out"/>
<feColorMatrix type="matrix" values="0 0 0 0 0.231373 0 0 0 0 0.407843 0 0 0 0 1 0 0 0 0.35 0"/>
<feBlend mode="normal" in2="BackgroundImageFix" result="effect1_dropShadow_192_1061"/>
<feBlend mode="normal" in="SourceGraphic" in2="effect1_dropShadow_192_1061" result="shape"/>
</filter>
<linearGradient id="paint0_linear_192_1061" x1="-2.85" y1="-0.400001" x2="26.9438" y2="29.4944" gradientUnits="userSpaceOnUse">
<stop stop-color="#A63434" stop-opacity="0.26"/>
<stop offset="0.505208" stop-color="#FF5858" stop-opacity="0.12"/>
<stop offset="1" stop-color="#FF8282" stop-opacity="0.04"/>
</linearGradient>
<linearGradient id="paint1_linear_192_1061" x1="3.45" y1="8.4" x2="17.6073" y2="22.0517" gradientUnits="userSpaceOnUse">
<stop stop-color="#FF8A8A" stop-opacity="0.25"/>
<stop offset="1" stop-color="#FF9999" stop-opacity="0.44"/>
</linearGradient>
</defs>
</svg>
